<svg width="64" height="57" viewBox="0 0 64 57" fill="none" xmlns="http://www.w3.org/2000/svg">
<rect width="64" height="57" fill="#E5E5E5"/>
<rect width="1440" height="6362" transform="translate(-739 -986)" fill="white"/>
<rect x="-739" y="-106" width="1440" height="432" fill="#FFF5E4"/>
<path fill-rule="evenodd" clip-rule="evenodd" d="M52.2667 49.107C52.2667 46.8733 51.3073 44.7438 49.6266 43.2474C47.9458 41.7505 45.701 41.0265 43.4484 41.2552L42.6339 38.8349L42.1771 36.5836L43.6703 27.0067L50.6208 20.6554C50.6479 20.6497 50.6752 20.6447 50.7026 20.6397C50.7547 20.6301 50.8073 20.6205 50.8599 20.606L51.7771 20.347L52.3635 21.6502C52.5354 22.0269 52.9146 22.2699 53.3333 22.2709H62.9333C63.3646 22.2709 63.7536 22.0145 63.9188 21.6214C64.0839 21.2283 63.9922 20.7756 63.6875 20.4745L59.6479 16.4879L56.4052 0.842258C56.3292 0.474844 56.0615 0.175261 55.7016 0.0555305C55.3417 -0.064714 54.9443 0.0133935 54.6583 0.260049L49.4167 4.78566C49.2313 4.94547 49.1073 5.16335 49.0667 5.40332L48.0161 11.5723C47.9813 11.7763 48.0078 11.9854 48.0927 12.1745L48.7328 13.6067L47.6172 14.5075C47.2615 14.7988 46.9672 15.1565 46.751 15.5599L34.6667 24.2262C34.375 24.4353 34.2099 24.776 34.2281 25.1316L34.8276 36.7614L34.2594 41.2141H30.9333C30.3443 41.2141 29.8667 41.6853 29.8667 42.2665H27.7333V39.1093H32C32.5891 39.1093 33.0667 38.6381 33.0667 38.0569V35.9521C33.0667 35.8452 33.05 35.7383 33.0177 35.6366L27.6844 18.7982C27.5443 18.3594 27.1323 18.0614 26.6667 18.0614V15.9566H24.5333V18.0614H18.1333V15.9566H16V18.0614C15.4109 18.0614 14.9333 18.5326 14.9333 19.1138V31.7425H10.6667V25.4281C10.6667 23.1034 8.75625 21.2185 6.4 21.2185H5.33333V23.3233H6.4C7.57812 23.3233 8.53333 24.2658 8.53333 25.4281V31.7425H4.26667V30.6901H5.33333C5.9224 30.6901 6.4 30.2189 6.4 29.6377V26.4805C6.4 25.8993 5.9224 25.4281 5.33333 25.4281H1.06667C0.477604 25.4281 0 25.8993 0 26.4805V29.6377C0 30.2189 0.477604 30.6901 1.06667 30.6901H2.13333V31.7425H1.06667C0.477604 31.7425 0 32.2137 0 32.7949V50.6856C0 51.2668 0.477604 51.738 1.06667 51.738H7.93385C8.36927 52.9436 9.09427 54.0268 10.0469 54.8952H0V57H64V54.8952H49.6885C51.3307 53.4065 52.2661 51.3074 52.2667 49.107ZM2.13333 27.5329H4.26667V28.5853H2.13333V27.5329ZM44.2667 54.8952C47.5068 54.8952 50.1333 52.3038 50.1333 49.107C50.1292 45.9118 47.5052 43.323 44.2667 43.3189C41.0266 43.3189 38.4 45.9103 38.4 49.107C38.4 52.3038 41.0266 54.8952 44.2667 54.8952ZM51.1063 6.12171L54.6818 3.03646L57.6224 17.2197C57.6635 17.4216 57.7646 17.6076 57.9125 17.753L60.3583 20.1662H54.0266L53.3464 18.6549L51.0708 13.6036L50.1729 11.6103L51.1063 6.12171ZM49.6354 15.601L48.9729 16.1354H48.974C48.4693 16.5434 48.3089 17.2371 48.5844 17.8204C48.8771 18.4509 49.5948 18.7731 50.2687 18.5773L50.8958 18.4005L49.6354 15.601ZM46.5109 18.3327C46.5505 18.4606 46.5969 18.586 46.6505 18.7088C46.9375 19.3198 47.3969 19.8363 47.9734 20.1965L41.9411 25.7092C41.7646 25.8706 41.6484 26.0864 41.613 26.3217L40.5078 33.4367C39.4089 32.6598 37.9531 32.5806 36.7745 33.2337L36.3807 25.5936L46.5109 18.3327ZM36.2583 42.397C36.1917 42.9237 35.738 43.3189 35.2 43.3189H32V49.6332H36.2932L36.2863 49.5314C36.2765 49.3908 36.2667 49.2503 36.2667 49.107C36.2708 45.8538 38.2958 42.9355 41.3688 41.7552L40.5865 39.4397C40.5714 39.3986 40.5599 39.3564 40.5526 39.3133L39.887 36.0394C39.749 35.3555 39.1281 34.8719 38.4219 34.8981C37.7156 34.9244 37.1333 35.4526 37.0474 36.1448L36.9599 36.8349V36.8529L36.2583 42.397ZM29.8667 44.3713V47.5284H27.7333V44.3713H29.8667ZM21.3333 32.7949H29.8828L27.2161 24.3757H21.3333V32.7949ZM16 33.8473C16.5891 33.8473 17.0667 33.3761 17.0667 32.7949V20.1662H25.8828L26.5495 22.2709H20.2667C19.6776 22.2709 19.2 22.7422 19.2 23.3233V33.8473C19.2 34.4285 19.6776 34.8997 20.2667 34.8997H30.5495L30.9333 36.1119V37.0045H11.7333C11.4734 37.0045 11.2229 37.098 11.0281 37.2676L3.86458 43.4946H2.13333V33.8473H16ZM2.13333 45.5994V49.6332H7.49427L7.48731 49.5313C7.47751 49.3908 7.46771 49.2502 7.46771 49.107C7.46771 44.7479 11.0495 41.2141 15.4677 41.2141C19.8859 41.2141 23.4677 44.7479 23.4677 49.107C23.4677 49.2502 23.4579 49.3908 23.4481 49.5313L23.4481 49.5314L23.4411 49.6332H25.6V39.1093H12.1375L4.97188 45.3363C4.77708 45.5059 4.52656 45.5994 4.26667 45.5994H2.13333ZM9.6 49.107C9.6 45.9103 12.2266 43.3189 15.4667 43.3189C18.7068 43.3189 21.3333 45.9103 21.3333 49.107C21.3333 52.3038 18.7068 54.8952 15.4667 54.8952C12.2281 54.8911 9.60417 52.3022 9.6 49.107ZM23.0005 51.738C22.5661 52.9436 21.8417 54.0273 20.8885 54.8952H38.8458C37.8932 54.0268 37.1677 52.9436 36.7328 51.738H30.9333C30.3443 51.738 29.8667 51.2668 29.8667 50.6856V49.6332H27.7333V50.6856C27.7333 51.2668 27.2557 51.738 26.6667 51.738H23.0005ZM15.4667 45.4236C13.4047 45.4236 11.7333 47.0726 11.7333 49.107C11.7333 51.1414 13.4047 52.7904 15.4667 52.7904C17.5286 52.7904 19.2 51.1414 19.2 49.107C19.2 47.0726 17.5286 45.4236 15.4667 45.4236ZM15.4667 50.6856C14.5828 50.6856 13.8667 49.9791 13.8667 49.107C13.8667 48.235 14.5828 47.5284 15.4667 47.5284C16.3505 47.5284 17.0667 48.235 17.0667 49.107C17.0667 49.9791 16.3505 50.6856 15.4667 50.6856ZM44.2667 52.7904C46.3286 52.7904 48 51.1414 48 49.107C48 47.0726 46.3286 45.4236 44.2667 45.4236C42.2047 45.4236 40.5333 47.0726 40.5333 49.107C40.5333 51.1414 42.2047 52.7904 44.2667 52.7904ZM44.2667 47.5284C45.1505 47.5284 45.8667 48.235 45.8667 49.107C45.8667 49.9791 45.1505 50.6856 44.2667 50.6856C43.3828 50.6856 42.6667 49.9791 42.6667 49.107C42.6667 48.235 43.3828 47.5284 44.2667 47.5284ZM6.4 35.9521H4.26667V38.0569H6.4V35.9521Z" fill="#333333"/>
</svg>
