<svg width="64" height="43" viewBox="0 0 64 43" fill="none" xmlns="http://www.w3.org/2000/svg">
<path fill-rule="evenodd" clip-rule="evenodd" d="M63.725 23.5167L61.8584 8.46667C61.7917 7.92865 61.3381 7.525 60.8 7.525H41.6003C41.0112 7.525 40.5336 8.00634 40.5336 8.6V27.95H33.3421C38.3196 24.7292 40.5941 18.5863 38.9264 12.8664C37.2587 7.14707 32.0489 3.22028 26.1338 3.225H25.6005V1.075C25.6005 0.481335 25.1229 0 24.5339 0H14.934C14.3449 0 13.8673 0.481335 13.8673 1.075V3.225H13.334C7.41899 3.22028 2.20916 7.14707 0.541478 12.8664C-1.12621 18.5863 1.14824 24.7292 6.12578 27.95H1.06751C0.478458 27.95 0.000859996 28.4313 0.000859996 29.025V35.475C0.000859996 36.0687 0.478458 36.55 1.06751 36.55H3.20082C3.20134 38.1389 3.78675 39.6711 4.8435 40.85H0.000859996V43H64V40.85H58.0907C59.1475 39.6711 59.7329 38.1389 59.7334 36.55H62.9333C63.5224 36.55 64 36.0687 64 35.475V25.8C64 25.7554 63.9969 25.7108 63.9917 25.6667L63.725 23.5167ZM59.7334 30.1V27.95H61.8667V30.1H59.7334ZM46.9336 22.575H61.4584L60.3917 13.975H46.9336V22.575ZM48.5762 40.85H27.1578C28.2145 39.6711 28.8 38.1389 28.8005 36.55H46.9336C46.9341 38.1389 47.5195 39.6711 48.5762 40.85ZM22.4006 32.25C20.0443 32.25 18.1339 34.1753 18.1339 36.55C18.1339 38.9247 20.0443 40.85 22.4006 40.85C24.7568 40.85 26.6672 38.9247 26.6672 36.55C26.6672 34.1753 24.7568 32.25 22.4006 32.25ZM37.3337 16.6625C37.3264 22.8936 32.3166 27.9427 26.1338 27.95H23.4672V5.375H26.1338C32.3166 5.38235 37.3264 10.4314 37.3337 16.6625ZM18.1339 24.725H21.3339V22.575H18.1339V24.725ZM21.3339 20.425H18.1339V18.275H21.3339V20.425ZM18.1339 16.125H21.3339V13.975H18.1339V16.125ZM21.3339 11.825H18.1339V9.675H21.3339V11.825ZM18.1339 7.525H21.3339V5.375H18.1339V7.525ZM18.1339 26.875H21.3339V27.95H18.1339V26.875ZM23.4672 2.15H16.0006V3.225H23.4672V2.15ZM2.13416 16.6625C2.14146 10.4314 7.15128 5.38235 13.334 5.375H16.0006V27.95H13.334C7.15128 27.9427 2.14146 22.8936 2.13416 16.6625ZM2.13416 30.1V34.4H3.57425C4.43361 31.9408 6.67889 30.2464 9.26167 30.1068C9.31729 30.1038 9.37282 30.1015 9.42826 30.1H9.78323C12.1654 30.1665 14.3324 31.5687 15.3725 33.7617C16.4881 36.1138 16.0876 38.9115 14.358 40.85H17.6433C15.9105 38.9121 15.5085 36.1122 16.6241 33.758C17.6427 31.6099 19.7421 30.2195 22.0661 30.1H22.7187L22.7386 30.101C25.3234 30.2417 27.5692 31.9387 28.427 34.4H40.5336V30.1H22.7187C22.4997 30.0888 22.2819 30.0889 22.0661 30.1H9.78323C9.6654 30.0967 9.54704 30.0967 9.42826 30.1H2.13416ZM5.33412 36.55C5.33412 34.1753 7.24451 32.25 9.60073 32.25C11.9569 32.25 13.8673 34.1753 13.8673 36.55C13.8673 38.9247 11.9569 40.85 9.60073 40.85C7.24451 40.85 5.33412 38.9247 5.33412 36.55ZM53.3335 32.25C50.9773 32.25 49.0669 34.1753 49.0669 36.55C49.0669 38.9247 50.9773 40.85 53.3335 40.85C55.6897 40.85 57.6001 38.9247 57.6001 36.55C57.6001 34.1753 55.6897 32.25 53.3335 32.25ZM59.36 34.4C58.46 31.8233 56.0444 30.0995 53.3335 30.0995C50.6226 30.0995 48.207 31.8233 47.307 34.4H42.667V9.675H59.8584L60.1251 11.825H45.8669C45.2779 11.825 44.8003 12.3063 44.8003 12.9V23.65C44.8003 24.2437 45.2779 24.725 45.8669 24.725H61.725L61.8584 25.8H58.6667C58.0777 25.8 57.6001 26.2813 57.6001 26.875V31.175C57.6001 31.7687 58.0777 32.25 58.6667 32.25H61.8667V34.4H59.36ZM9.60073 34.4C8.42262 34.4 7.46743 35.3627 7.46743 36.55C7.46743 37.7373 8.42262 38.7 9.60073 38.7C10.7788 38.7 11.734 37.7373 11.734 36.55C11.734 35.3627 10.7788 34.4 9.60073 34.4ZM22.4006 34.4C21.2224 34.4 20.2673 35.3627 20.2673 36.55C20.2673 37.7373 21.2224 38.7 22.4006 38.7C23.5787 38.7 24.5339 37.7373 24.5339 36.55C24.5339 35.3627 23.5787 34.4 22.4006 34.4ZM51.2002 36.55C51.2002 35.3627 52.1554 34.4 53.3335 34.4C54.5116 34.4 55.4668 35.3627 55.4668 36.55C55.4668 37.7373 54.5116 38.7 53.3335 38.7C52.1554 38.7 51.2002 37.7373 51.2002 36.55Z" fill="#333333"/>
</svg>
