<svg width="48" height="48" viewBox="0 0 48 48" fill="none" xmlns="http://www.w3.org/2000/svg">
<path d="M24 48C37.2548 48 48 37.2548 48 24C48 10.7452 37.2548 0 24 0C10.7452 0 0 10.7452 0 24C0 37.2548 10.7452 48 24 48Z" fill="#555555"/>
<path fill-rule="evenodd" clip-rule="evenodd" d="M17.8835 15.9915L19.9519 15L22.8909 20.9175L20.909 21.9233C20.5178 22.8675 22.4793 26.64 23.3069 26.7023C23.3724 26.6588 25.2495 25.7063 25.2495 25.7063L28.2387 31.6553C28.2387 31.6553 26.2285 32.6708 26.163 32.7023C20.4458 35.3956 12.271 19.0088 17.8835 15.9915ZM19.2872 16.947L18.5432 17.325C14.6929 19.3965 21.5811 33.2138 25.5601 31.3395L26.2663 30.984L24.6146 27.6968L23.8684 28.0718C21.568 29.232 17.8595 21.9075 20.1919 20.6183L20.9243 20.2455L19.2872 16.947ZM27.1049 23.3363L24.9833 22.6838L25.6154 20.4968C26.1579 20.6633 26.6401 21.0443 26.9303 21.5985C27.2212 22.152 27.267 22.776 27.1049 23.3363ZM26.2954 18.1395C27.4234 18.486 28.4234 19.2765 29.0271 20.4278C29.6315 21.5798 29.7253 22.875 29.3893 24.0375L28.0838 23.6363C28.3202 22.818 28.2532 21.9068 27.8278 21.096C27.4038 20.2853 26.6997 19.7295 25.9055 19.4865L26.2954 18.1395ZM31.153 19.242C30.2322 17.484 28.7063 16.2788 26.9863 15.75L26.587 17.1308C27.9652 17.5538 29.1871 18.5198 29.926 19.9275C30.6635 21.3345 30.7784 22.9178 30.3682 24.339L31.7064 24.75C32.2192 22.9755 32.0759 20.9993 31.153 19.242Z" fill="white"/>
</svg>
