<svg width="64" height="59" fill="none" xmlns="http://www.w3.org/2000/svg"><path fill-rule="evenodd" clip-rule="evenodd" d="m55.53 22.701 2.042 5.418c3.893 1.676 6.421 5.525 6.428 9.789-.059 5.983-4.917 10.788-10.86 10.74a10.925 10.925 0 0 1-8.06-3.56l-1.025-1.126 6.106-2.578 4.29-9.882-4.234-5.974a3.476 3.476 0 0 1-1.097-1.034L39.4 9.81l-15.004 9.066-3.829 15.42h2.9v-8.594c0-1.78 1.434-3.222 3.201-3.222h7.794a3.198 3.198 0 0 1 3.156 2.692l1.85 11.271v9.668h-7.466v2.148h7.467c2.945 0 5.333 2.404 5.333 5.37S42.414 59 39.47 59H5.334C2.388 59 0 56.595 0 53.63c0-2.967 2.388-5.371 5.334-5.371H12.8V46.11H9.6c-1.768 0-3.2-1.443-3.2-3.223v-5.37c0-1.78 1.432-3.223 3.2-3.223h.309l7.346-21.133L38.392.59c.363-.21.757-.362 1.167-.452a3.927 3.927 0 0 1 3.773.978c.304.27.566.582.78.927.022.04.039.08.055.119.014.032.028.065.044.096l10.845 18.48c.345.594.509 1.277.473 1.963ZM5.333 50.407c-1.768 0-3.2 1.443-3.2 3.222 0 1.78 1.432 3.223 3.2 3.223 1.767 0 3.2-1.443 3.2-3.223 0-1.78-1.433-3.222-3.2-3.222Zm37.335 3.222c0 1.78-1.433 3.223-3.2 3.223-1.768 0-3.2-1.443-3.2-3.223 0-1.78 1.432-3.222 3.2-3.222 1.767 0 3.2 1.443 3.2 3.222Zm-7.44 3.223a5.292 5.292 0 0 1 0-6.445h-7.494v2.148H25.6v-2.148h-6.4v2.148h-2.134v-2.148H9.573a5.292 5.292 0 0 1 0 6.445h4.294v-2.148h2.134v2.148h5.333v-2.148h2.134v2.148H28.8v-2.148h2.134v2.148h4.294Zm-5.36-8.593H14.933V46.11h14.934v2.148Zm-3.201-23.631c-.59 0-1.067.48-1.067 1.074v18.26h11.734v-7.43l-1.822-11.006a1.07 1.07 0 0 0-1.051-.898h-7.794Zm-3.2 11.815v7.52H9.6a1.07 1.07 0 0 1-1.066-1.075v-5.37A1.07 1.07 0 0 1 9.6 36.442h13.868Zm-5.1-2.148L22.54 17.49 41.578 5.985a2.057 2.057 0 0 0 .804-2.626l-.149-.252a1.951 1.951 0 0 0-.386-.46 2.048 2.048 0 0 0-1.784-.44c-.184.046-.36.119-.524.216l-.007-.013-.027.012-.03.013-20.463 12.176-6.84 19.684h6.196ZM41.231 8.704l1.444-.873a4.147 4.147 0 0 0 1.448-1.504l9.097 15.508c.194.33.243.727.135 1.095a1.37 1.37 0 0 1-2.46.376L41.231 8.704Zm12.993 16.589a2.85 2.85 0 0 1-1.136.588l2.359 3.33.136-.315-1.358-3.603Zm-1.08 21.212a8.8 8.8 0 0 1-5.325-1.8l3.955-1.673 4.122-9.489 1.067-2.47.32-.725a8.521 8.521 0 0 1 4.587 7.564c-.059 4.797-3.962 8.64-8.726 8.593Zm-19.009-3.617h-5.334a2.141 2.141 0 0 1-2.133-2.148V27.85a2.14 2.14 0 0 1 2.133-2.148h3.852a2.13 2.13 0 0 1 2.105 1.795l1.482 8.948c.02.118.028.236.028.355v3.94a2.141 2.141 0 0 1-2.133 2.148Zm-5.334-5.37v3.222h5.334v-3.223h-5.334Zm3.852-9.668 1.245 7.52h-5.097v-7.52h3.852Zm-21.986 9.667h4.267v2.149h-4.267v-2.148Zm2.134 3.223h-2.134v2.148h2.134V40.74ZM6.4 52.555H4.266v2.148H6.4v-2.148Zm32 0h2.134v2.148h-2.133v-2.148Z" fill="#333"/></svg>