<svg width="72" height="72" fill="none" xmlns="http://www.w3.org/2000/svg"><g filter="url(#a)"><path fill-rule="evenodd" clip-rule="evenodd" d="M59.466 3.2h7.467c.589 0 1.066.478 1.066 1.067v4.266c0 .59-.477 1.067-1.066 1.067h-7.467v1.067c0 .59-.477 1.066-1.066 1.066h-2.134v50.134h1.899a3.17 3.17 0 0 1 1.536-5.21 3.2 3.2 0 1 1 5.93 0 3.17 3.17 0 0 1 1.537 5.21h.831V64H4v-2.133h.625l5.02-5.02a1.066 1.066 0 0 1 1.51 0l5.02 5.02h1.692v-48H20v4.266h13.866v2.134H20v3.2h6.4V22.4h2.133v1.067h6.4v-2.134h2.133v2.134h6.4V19.2H45.6v42.667h4.266V11.733h-2.133c-.59 0-1.067-.477-1.067-1.066V9.6H10.4v19.383a3.18 3.18 0 0 1 1.317 5.13l2.736 3.647-.013.01c.142.18.222.401.227.63v4.267c0 .283-.113.554-.313.754l-2.133 2.133c-.2.2-.472.313-.754.313H7.2c-.283 0-.554-.113-.754-.313l-2.133-2.133c-.2-.2-.313-.471-.313-.754V38.4c.005-.229.084-.45.227-.63l-.013-.01 2.735-3.646A3.176 3.176 0 0 1 6.133 32h2.134a1.066 1.066 0 1 0 1.066-1.067c-.589 0-1.066-.477-1.066-1.066V9.6h-3.2C4.477 9.6 4 9.123 4 8.533V4.267c0-.59.478-1.067 1.067-1.067h41.6V1.067c0-.59.477-1.067 1.066-1.067H58.4c.589 0 1.066.478 1.066 1.067V3.2Zm-48 34.133-1.6-2.133H8.8l-1.6 2.133h4.267Zm1.067 4.892-1.508 1.508H7.642l-1.509-1.508v-2.758h6.4v2.758ZM59.466 7.255l2.88-1.92h-2.88v1.92ZM48.8 2.134h4.266V6.4H48.8V2.133ZM22.88 7.466 20 5.547l-2.88 1.92h5.76Zm-9.28-.213-2.88-1.92h5.76l-2.88 1.92Zm12.8 0 2.88-1.92h-5.76l2.88 1.92Zm6.4-1.707 2.88 1.92h-5.76l2.88-1.92Zm6.4 1.707 2.88-1.92h-5.76l2.88 1.92ZM6.133 5.334h.747l3.2 2.133H6.133V5.333Zm39.786 0-3.2 2.133h3.947V5.333h-.747Zm8.214 53.013-1.92-2.88 1.92-2.88v5.76Zm-1.92-28.48 1.92 2.88v-5.76l-1.92 2.88ZM52 33.387l1.92 2.88-1.92 2.88v-5.76Zm0-12.8v5.76l1.92-2.88-1.92-2.88Zm0 25.6 1.92 2.88-1.92 2.88v-5.76Zm.213-3.52 1.92 2.874v-5.754l-1.92 2.88Zm0-25.6 1.92-2.88v5.76l-1.92-2.88ZM52 11.733v1.814l1.207-1.814H52ZM43.466 25.6v10.667h-6.4V25.6h6.4Zm-8.533 9.173V25.6h-6.4v6.44h3.2c.28.002.548.113.747.309l2.453 2.424ZM26.4 25.6v1.778H20V25.6h6.4ZM13.158 61.867 10.4 59.108l-2.758 2.759h5.516Zm6.842 0V29.512h6.4v3.6c0 .589.477 1.066 1.067 1.066h3.828l3.958 3.914c.199.197.467.308.747.308h7.466v23.467H20Zm33.92 0L52 58.987v2.88h1.92ZM64.8 60.8a1.066 1.066 0 1 1-.001-2.133 1.066 1.066 0 0 1 0 2.133Zm-1.067-5.333a1.067 1.067 0 1 0-2.134 0 1.067 1.067 0 0 0 2.134 0Zm-3.2 3.2a1.067 1.067 0 1 1 0 2.133 1.067 1.067 0 0 1 0-2.133ZM48.8 8.533V9.6h8.533V2.133H55.2v5.334c0 .59-.478 1.066-1.067 1.066H48.8Zm14.186-1.066 2.88-1.92v1.92h-2.88Zm-40.853 28.8h2.134V38.4h-2.134v-2.133Zm4.267 0h2.133V38.4H26.4v-2.133Zm6.4 0h-2.134V38.4H32.8v-2.133Zm-10.667 4.266h2.134v2.134h-2.134v-2.134Zm6.4 0H26.4v2.134h2.133v-2.134Zm2.133 0H32.8v2.134h-2.134v-2.134Zm6.4 2.134v-2.134h-2.133v2.134h2.133Zm2.134-2.134h2.133v2.134H39.2v-2.134ZM24.266 44.8h-2.133v2.133h2.134V44.8Zm2.134 0h2.133v2.133H26.4V44.8Zm6.4 0h-2.134v2.133H32.8V44.8Zm2.133 2.133V44.8h2.133v2.133h-2.133Zm6.4-2.133H39.2v2.133h2.133V44.8Zm-19.2 4.267h2.134V51.2h-2.134v-2.133Zm6.4 0H26.4V51.2h2.133v-2.133Zm2.133 0H32.8V51.2h-2.134v-2.133Zm6.4 2.133v-2.133h-2.133V51.2h2.133Zm2.134-2.133h2.133V51.2H39.2v-2.133Zm-14.934 4.266h-2.133v2.134h2.134v-2.134Zm2.134 0h2.133v2.134H26.4v-2.134Zm6.4 0h-2.134v2.134H32.8v-2.134Zm2.133 0h2.133v2.134h-2.133v-2.134Zm6.4 0H39.2v2.134h2.133v-2.134Zm-19.2 4.267h2.134v2.133h-2.134V57.6Zm6.4 0H26.4v2.133h2.133V57.6Zm2.133 0H32.8v2.133h-2.134V57.6Zm6.4 0h-2.133v2.133h2.133V57.6Zm2.134 0h2.133v2.133H39.2V57.6Z" fill="#333"/></g><defs><filter id="a" x="0" y="0" width="72" height="72" filterUnits="userSpaceOnUse" color-interpolation-filters="sRGB"><feFlood flood-opacity="0" result="BackgroundImageFix"/><feColorMatrix in="SourceAlpha" values="0 0 0 0 0 0 0 0 0 0 0 0 0 0 0 0 0 0 127 0" result="hardAlpha"/><feOffset dy="4"/><feGaussianBlur stdDeviation="2"/><feComposite in2="hardAlpha" operator="out"/><feColorMatrix values="0 0 0 0 0 0 0 0 0 0 0 0 0 0 0 0 0 0 0.25 0"/><feBlend in2="BackgroundImageFix" result="effect1_dropShadow"/><feBlend in="SourceGraphic" in2="effect1_dropShadow" result="shape"/></filter></defs></svg>