<svg width="64" height="43" fill="none" xmlns="http://www.w3.org/2000/svg"><path fill-rule="evenodd" clip-rule="evenodd" d="m63.725 23.517-1.867-15.05a1.07 1.07 0 0 0-1.058-.942H41.6A1.07 1.07 0 0 0 40.534 8.6v19.35h-7.192c4.978-3.22 7.252-9.364 5.584-15.084C37.26 7.147 32.05 3.22 26.134 3.225H25.6v-2.15A1.07 1.07 0 0 0 24.535 0h-9.6a1.07 1.07 0 0 0-1.067 1.075v2.15h-.533C7.419 3.22 2.209 7.147.541 12.866c-1.667 5.72.607 11.863 5.585 15.084H1.068A1.07 1.07 0 0 0 0 29.025v6.45a1.07 1.07 0 0 0 1.067 1.075H3.2c0 1.589.586 3.121 1.642 4.3H.002V43H64v-2.15h-5.91a6.446 6.446 0 0 0 1.643-4.3h3.2A1.07 1.07 0 0 0 64 35.475V25.8c0-.045-.003-.09-.008-.133l-.267-2.15ZM59.733 30.1v-2.15h2.134v2.15h-2.134Zm-12.8-7.525h14.525l-1.066-8.6H46.934v8.6Zm1.643 18.275H27.158a6.446 6.446 0 0 0 1.642-4.3h18.134c0 1.589.586 3.121 1.642 4.3Zm-26.175-8.6c-2.357 0-4.267 1.925-4.267 4.3s1.91 4.3 4.267 4.3c2.356 0 4.266-1.925 4.266-4.3s-1.91-4.3-4.266-4.3Zm14.933-15.587c-.008 6.23-5.017 11.28-11.2 11.287h-2.667V5.375h2.667c6.183.007 11.192 5.056 11.2 11.288Zm-19.2 8.062h3.2v-2.15h-3.2v2.15Zm3.2-4.3h-3.2v-2.15h3.2v2.15Zm-3.2-4.3h3.2v-2.15h-3.2v2.15Zm3.2-4.3h-3.2v-2.15h3.2v2.15Zm-3.2-4.3h3.2v-2.15h-3.2v2.15Zm0 19.35h3.2v1.075h-3.2v-1.075ZM23.467 2.15h-7.466v1.075h7.466V2.15ZM2.134 16.663c.007-6.232 5.017-11.28 11.2-11.288h2.667V27.95h-2.667c-6.183-.007-11.193-5.056-11.2-11.287Zm0 13.437v4.3h1.44a6.4 6.4 0 0 1 5.854-4.3h.355a6.39 6.39 0 0 1 5.59 3.662 6.484 6.484 0 0 1-1.015 7.088h3.285a6.484 6.484 0 0 1-1.019-7.092 6.394 6.394 0 0 1 5.442-3.658h.653l.02.001a6.4 6.4 0 0 1 5.688 4.299h12.107v-4.3H22.719a6.37 6.37 0 0 0-.653 0H9.783a6.365 6.365 0 0 0-.355 0H2.134Zm3.2 6.45c0-2.375 1.91-4.3 4.267-4.3 2.356 0 4.266 1.925 4.266 4.3s-1.91 4.3-4.266 4.3-4.267-1.925-4.267-4.3Zm48-4.3c-2.357 0-4.267 1.925-4.267 4.3s1.91 4.3 4.267 4.3c2.356 0 4.266-1.925 4.266-4.3s-1.91-4.3-4.267-4.3Zm6.026 2.15a6.392 6.392 0 0 0-6.026-4.3 6.392 6.392 0 0 0-6.027 4.3h-4.64V9.675h17.191l.267 2.15H45.867A1.07 1.07 0 0 0 44.8 12.9v10.75a1.07 1.07 0 0 0 1.067 1.075h15.858l.133 1.075h-3.191a1.07 1.07 0 0 0-1.067 1.075v4.3a1.07 1.07 0 0 0 1.067 1.075h3.2v2.15H59.36Zm-49.76 0a2.142 2.142 0 0 0-2.133 2.15c0 1.187.956 2.15 2.134 2.15a2.142 2.142 0 0 0 2.133-2.15c0-1.187-.955-2.15-2.133-2.15Zm12.8 0a2.142 2.142 0 0 0-2.133 2.15c0 1.187.955 2.15 2.134 2.15a2.142 2.142 0 0 0 2.133-2.15c0-1.187-.955-2.15-2.133-2.15Zm28.8 2.15c0-1.187.955-2.15 2.133-2.15 1.179 0 2.134.963 2.134 2.15 0 1.187-.955 2.15-2.133 2.15a2.142 2.142 0 0 1-2.134-2.15Z" fill="#333"/></svg>