<svg width="64" height="57" fill="none" xmlns="http://www.w3.org/2000/svg"><path fill="#E5E5E5" d="M0 0h64v57H0z"/><path fill="#fff" d="M-739-986H701v6362H-739z"/><path fill="#FFF5E4" d="M-739-106H701v432H-739z"/><path fill-rule="evenodd" clip-rule="evenodd" d="M52.267 49.107c0-2.234-.96-4.363-2.64-5.86a8.068 8.068 0 0 0-6.179-1.992l-.814-2.42-.457-2.251 1.493-9.577 6.95-6.352.083-.015c.052-.01.104-.02.157-.034l.917-.259.587 1.303c.171.377.55.62.97.62h9.6c.43 0 .82-.255.985-.649a1.043 1.043 0 0 0-.231-1.146l-4.04-3.987L56.405.842a1.056 1.056 0 0 0-.703-.786 1.077 1.077 0 0 0-1.044.204l-5.241 4.526c-.186.16-.31.377-.35.617l-1.05 6.17c-.036.203-.01.412.076.601l.64 1.433-1.116.9c-.355.292-.65.65-.866 1.053l-12.084 8.666c-.292.21-.457.55-.439.906l.6 11.63-.569 4.452h-3.326a1.06 1.06 0 0 0-1.066 1.053h-2.134v-3.158H32a1.06 1.06 0 0 0 1.067-1.052v-2.105c0-.107-.017-.214-.05-.315l-5.333-16.839a1.066 1.066 0 0 0-1.017-.737v-2.104h-2.134v2.104h-6.4v-2.104H16v2.104a1.06 1.06 0 0 0-1.067 1.053v12.628h-4.266v-6.314c0-2.325-1.91-4.21-4.267-4.21H5.333v2.105H6.4c1.178 0 2.133.943 2.133 2.105v6.314H4.267V30.69h1.066A1.06 1.06 0 0 0 6.4 29.638V26.48a1.06 1.06 0 0 0-1.067-1.052H1.067A1.06 1.06 0 0 0 0 26.48v3.158a1.06 1.06 0 0 0 1.067 1.052h1.066v1.052H1.067A1.06 1.06 0 0 0 0 32.795v17.89a1.06 1.06 0 0 0 1.067 1.053h6.867a7.908 7.908 0 0 0 2.113 3.157H0V57h64v-2.105H49.688a7.816 7.816 0 0 0 2.579-5.788ZM2.133 27.533h2.134v1.052H2.133v-1.052Zm42.134 27.362c3.24 0 5.866-2.591 5.866-5.788-.004-3.195-2.628-5.784-5.866-5.788-3.24 0-5.867 2.591-5.867 5.788s2.627 5.788 5.867 5.788Zm6.84-48.773 3.575-3.086 2.94 14.184c.041.202.143.388.29.533l2.446 2.413h-6.331l-.68-1.511-2.276-5.051-.898-1.994.933-5.488ZM49.634 15.6l-.662.534h.001a1.397 1.397 0 0 0-.39 1.685 1.42 1.42 0 0 0 1.685.757l.627-.177-1.26-2.799Zm-3.124 2.732c.04.128.086.253.14.376a3.521 3.521 0 0 0 1.322 1.488l-6.032 5.512a1.04 1.04 0 0 0-.328.613l-1.105 7.115a3.522 3.522 0 0 0-3.733-.203l-.394-7.64 10.13-7.261ZM36.258 42.397c-.066.527-.52.922-1.058.922H32v6.314h4.293l-.007-.102c-.01-.14-.02-.28-.02-.424.005-3.253 2.03-6.172 5.103-7.352l-.782-2.315a.71.71 0 0 1-.034-.127l-.666-3.274a1.435 1.435 0 0 0-1.465-1.14 1.432 1.432 0 0 0-1.375 1.246l-.087.69v.018l-.702 5.544Zm-6.391 1.974v3.157h-2.134v-3.157h2.134Zm-8.534-11.576h8.55l-2.667-8.42h-5.883v8.42ZM16 33.847a1.06 1.06 0 0 0 1.067-1.052V20.166h8.816l.666 2.105h-6.282a1.06 1.06 0 0 0-1.067 1.052v10.524a1.06 1.06 0 0 0 1.067 1.053h10.282l.384 1.212v.892h-19.2c-.26 0-.51.094-.705.264l-7.163 6.227H2.133v-9.648H16ZM2.133 45.6v4.034h5.361l-.007-.102c-.01-.14-.02-.28-.02-.424 0-4.36 3.583-7.893 8-7.893 4.419 0 8 3.534 8 7.893 0 .143-.01.284-.019.424l-.007.102H25.6V39.11H12.137l-7.165 6.227c-.195.17-.445.263-.705.263H2.133ZM9.6 49.107c0-3.197 2.627-5.788 5.867-5.788s5.866 2.591 5.866 5.788-2.626 5.788-5.866 5.788c-3.239-.004-5.863-2.593-5.867-5.788ZM23 51.738a7.886 7.886 0 0 1-2.111 3.157h17.957a7.903 7.903 0 0 1-2.113-3.157h-5.8a1.06 1.06 0 0 1-1.066-1.052v-1.053h-2.134v1.053a1.06 1.06 0 0 1-1.066 1.052H23Zm-7.533-6.314c-2.062 0-3.734 1.649-3.734 3.683s1.672 3.683 3.734 3.683c2.062 0 3.733-1.649 3.733-3.683s-1.671-3.683-3.733-3.683Zm0 5.262a1.59 1.59 0 0 1-1.6-1.579 1.59 1.59 0 0 1 1.6-1.579c.883 0 1.6.707 1.6 1.579a1.59 1.59 0 0 1-1.6 1.579Zm28.8 2.104c2.062 0 3.733-1.649 3.733-3.683s-1.671-3.683-3.733-3.683c-2.062 0-3.734 1.649-3.734 3.683s1.672 3.683 3.734 3.683Zm0-5.262c.883 0 1.6.707 1.6 1.579a1.59 1.59 0 0 1-1.6 1.579 1.59 1.59 0 0 1-1.6-1.579 1.59 1.59 0 0 1 1.6-1.579ZM6.4 35.952H4.267v2.105H6.4v-2.105Z" fill="#333"/></svg>