<svg width="72" height="72" viewBox="0 0 72 72" fill="none" xmlns="http://www.w3.org/2000/svg">
<g filter="url(#filter0_d_2:543)">
<path fill-rule="evenodd" clip-rule="evenodd" d="M59.4662 3.2H66.9328C67.5219 3.2 67.9995 3.6776 67.9995 4.26667V8.53333C67.9995 9.12292 67.5219 9.6 66.9328 9.6H59.4662V10.6667C59.4662 11.2563 58.9886 11.7333 58.3996 11.7333H56.2662V61.8667H58.1647C57.4141 61.0474 57.1475 59.8943 57.4621 58.8281C57.7761 57.7625 58.6256 56.9385 59.7011 56.6573C59.1589 55.3203 59.5777 53.7865 60.7245 52.9109C61.8709 52.0354 63.4615 52.0354 64.6078 52.9109C65.7547 53.7865 66.1734 55.3203 65.6313 56.6573C66.7068 56.9385 67.5562 57.7625 67.8703 58.8281C68.1849 59.8943 67.9182 61.0474 67.1677 61.8667H67.9995V64H4V61.8667H4.62499L9.64579 56.8464C10.0624 56.4297 10.7374 56.4297 11.1541 56.8464L16.1749 61.8667H17.8666V13.8667H19.9999V18.1333H33.8664V20.2667H19.9999V23.4667H26.3998V22.4H28.5331V23.4667H34.9331V21.3333H37.0664V23.4667H43.4663V19.2H45.5997V61.8667H49.8663V11.7333H47.733C47.1439 11.7333 46.6663 11.2563 46.6663 10.6667V9.6H10.3999V28.9828C11.4051 29.3333 12.1687 30.1635 12.4333 31.1948C12.6984 32.226 12.4296 33.3219 11.7171 34.1135L14.453 37.7604L14.4395 37.7708C14.5822 37.95 14.6619 38.1714 14.6666 38.4V42.6667C14.6666 42.95 14.5541 43.2208 14.3541 43.4208L12.2208 45.5542C12.0208 45.7542 11.7494 45.8667 11.4666 45.8667H7.19997C6.91716 45.8667 6.64581 45.7542 6.44581 45.5542L4.3125 43.4208C4.1125 43.2208 4 42.95 4 42.6667V38.4C4.00469 38.1714 4.08437 37.95 4.22708 37.7708L4.21354 37.7604L6.94946 34.1135C6.42654 33.5333 6.13644 32.7807 6.13332 32H8.26663C8.26663 32.5896 8.74423 33.0667 9.33329 33.0667C9.92235 33.0667 10.3999 32.5896 10.3999 32C10.3999 31.4109 9.92235 30.9333 9.33329 30.9333C8.74423 30.9333 8.26663 30.4562 8.26663 29.8667V9.6H5.06666C4.4776 9.6 4 9.12292 4 8.53333V4.26667C4 3.6776 4.4776 3.2 5.06666 3.2H46.6663V1.06667C46.6663 0.477604 47.1439 0 47.733 0H58.3996C58.9886 0 59.4662 0.477604 59.4662 1.06667V3.2ZM11.4666 37.3333L9.86662 35.2H8.79996L7.19997 37.3333H11.4666ZM12.5333 42.2255L11.0249 43.7333H7.64164L6.13332 42.2255V39.4667H12.5333V42.2255ZM59.4662 7.25365L62.3464 5.33333H59.4662V7.25365ZM48.7996 2.13333H53.0663V6.4H48.7996V2.13333ZM22.8801 7.46667L19.9999 5.54688L17.1197 7.46667H22.8801ZM13.5999 7.25365L10.7197 5.33333H16.4801L13.5999 7.25365ZM26.3998 7.25365L29.28 5.33333H23.5196L26.3998 7.25365ZM32.7998 5.54688L35.6799 7.46667H29.9196L32.7998 5.54688ZM39.1997 7.25365L42.0799 5.33333H36.3195L39.1997 7.25365ZM6.13332 5.33333H6.88018L10.0802 7.46667H6.13332V5.33333ZM45.9194 5.33333L42.7195 7.46667H46.6663V5.33333H45.9194ZM54.1329 58.3469L52.2131 55.4667L54.1329 52.587V58.3469ZM52.2131 29.8667L54.1329 32.7469V26.987L52.2131 29.8667ZM51.9996 33.387L53.9194 36.2667L51.9996 39.1469V33.387ZM51.9996 20.587V26.3469L53.9194 23.4667L51.9996 20.587ZM51.9996 46.187L53.9194 49.0667L51.9996 51.9469V46.187ZM52.2131 42.6667L54.1329 45.5406V39.787L52.2131 42.6667ZM52.2131 17.0667L54.1329 14.187V19.9469L52.2131 17.0667ZM51.9996 11.7333V13.5469L53.2069 11.7333H51.9996ZM43.4663 25.6V36.2667H37.0664V25.6H43.4663ZM34.9331 34.7734V25.6H28.5331V32.0406H31.7331C32.0128 32.0417 32.281 32.1526 32.48 32.349L34.9331 34.7734ZM26.3998 25.6V27.3781H19.9999V25.6H26.3998ZM13.1583 61.8667L10.3999 59.1083L7.64164 61.8667H13.1583ZM19.9999 61.8667V29.5115H26.3998V33.1115C26.3998 33.701 26.8774 34.1781 27.4665 34.1781H31.2946L35.2529 38.0922C35.4518 38.2885 35.7201 38.3995 35.9997 38.4H43.4663V61.8667H19.9999ZM53.9194 61.8667L51.9996 58.987V61.8667H53.9194ZM64.7995 60.8C64.2104 60.8 63.7328 60.3229 63.7328 59.7333C63.7328 59.1443 64.2104 58.6667 64.7995 58.6667C65.3886 58.6667 65.8662 59.1443 65.8662 59.7333C65.8662 60.3229 65.3886 60.8 64.7995 60.8ZM63.7328 55.4667C63.7328 54.8776 63.2552 54.4 62.6662 54.4C62.0771 54.4 61.5995 54.8776 61.5995 55.4667C61.5995 56.0563 62.0771 56.5333 62.6662 56.5333C63.2552 56.5333 63.7328 56.0563 63.7328 55.4667ZM60.5329 58.6667C61.1219 58.6667 61.5995 59.1443 61.5995 59.7333C61.5995 60.3229 61.1219 60.8 60.5329 60.8C59.9438 60.8 59.4662 60.3229 59.4662 59.7333C59.4662 59.1443 59.9438 58.6667 60.5329 58.6667ZM48.7996 8.53333V9.6H57.3329V2.13333H55.1996V7.46667C55.1996 8.05625 54.722 8.53333 54.1329 8.53333H48.7996ZM62.986 7.46667L65.8662 5.54688V7.46667H62.986ZM22.1332 36.2667H24.2665V38.4H22.1332V36.2667ZM26.3998 36.2667H28.5331V38.4H26.3998V36.2667ZM32.7998 36.2667H30.6664V38.4H32.7998V36.2667ZM22.1332 40.5333H24.2665V42.6667H22.1332V40.5333ZM28.5331 40.5333H26.3998V42.6667H28.5331V40.5333ZM30.6664 40.5333H32.7998V42.6667H30.6664V40.5333ZM37.0664 42.6667V40.5333H34.9331V42.6667H37.0664ZM39.1997 40.5333H41.333V42.6667H39.1997V40.5333ZM24.2665 44.8H22.1332V46.9333H24.2665V44.8ZM26.3998 44.8H28.5331V46.9333H26.3998V44.8ZM32.7998 44.8H30.6664V46.9333H32.7998V44.8ZM34.9331 46.9333V44.8H37.0664V46.9333H34.9331ZM41.333 44.8H39.1997V46.9333H41.333V44.8ZM22.1332 49.0667H24.2665V51.2H22.1332V49.0667ZM28.5331 49.0667H26.3998V51.2H28.5331V49.0667ZM30.6664 49.0667H32.7998V51.2H30.6664V49.0667ZM37.0664 51.2V49.0667H34.9331V51.2H37.0664ZM39.1997 49.0667H41.333V51.2H39.1997V49.0667ZM24.2665 53.3333H22.1332V55.4667H24.2665V53.3333ZM26.3998 53.3333H28.5331V55.4667H26.3998V53.3333ZM32.7998 53.3333H30.6664V55.4667H32.7998V53.3333ZM34.9331 53.3333H37.0664V55.4667H34.9331V53.3333ZM41.333 53.3333H39.1997V55.4667H41.333V53.3333ZM22.1332 57.6H24.2665V59.7333H22.1332V57.6ZM28.5331 57.6H26.3998V59.7333H28.5331V57.6ZM30.6664 57.6H32.7998V59.7333H30.6664V57.6ZM37.0664 57.6H34.9331V59.7333H37.0664V57.6ZM39.1997 57.6H41.333V59.7333H39.1997V57.6Z" fill="#333333"/>
</g>
<defs>
<filter id="filter0_d_2:543" x="0" y="0" width="72" height="72" filterUnits="userSpaceOnUse" color-interpolation-filters="sRGB">
<feFlood flood-opacity="0" result="BackgroundImageFix"/>
<feColorMatrix in="SourceAlpha" type="matrix" values="0 0 0 0 0 0 0 0 0 0 0 0 0 0 0 0 0 0 127 0" result="hardAlpha"/>
<feOffset dy="4"/>
<feGaussianBlur stdDeviation="2"/>
<feComposite in2="hardAlpha" operator="out"/>
<feColorMatrix type="matrix" values="0 0 0 0 0 0 0 0 0 0 0 0 0 0 0 0 0 0 0.25 0"/>
<feBlend mode="normal" in2="BackgroundImageFix" result="effect1_dropShadow_2:543"/>
<feBlend mode="normal" in="SourceGraphic" in2="effect1_dropShadow_2:543" result="shape"/>
</filter>
</defs>
</svg>
