<svg width="48" height="48" fill="none" xmlns="http://www.w3.org/2000/svg"><path d="M24 48c13.255 0 24-10.745 24-24S37.255 0 24 0 0 10.745 0 24s10.745 24 24 24Z" fill="#555"/><path fill-rule="evenodd" clip-rule="evenodd" d="M17.884 15.992 19.952 15l2.939 5.918-1.982 1.005c-.391.945 1.57 4.717 2.398 4.78.065-.044 1.943-.997 1.943-.997l2.989 5.95s-2.01 1.015-2.076 1.046c-5.717 2.694-13.892-13.693-8.28-16.71Zm1.403.955-.744.378c-3.85 2.072 3.038 15.889 7.017 14.015l.706-.356-1.651-3.287-.747.375c-2.3 1.16-6.008-6.165-3.676-7.454l.732-.372-1.637-3.299Zm7.818 6.39-2.122-.653.632-2.187a2.221 2.221 0 0 1 1.315 1.102c.291.553.337 1.177.175 1.737Zm-.81-5.197a4.615 4.615 0 0 1 2.732 2.288 4.858 4.858 0 0 1 .362 3.61l-1.305-.402c.236-.818.17-1.73-.256-2.54a3.238 3.238 0 0 0-1.922-1.61l.39-1.346Zm4.858 1.102a7.038 7.038 0 0 0-4.167-3.492l-.399 1.38a5.642 5.642 0 0 1 3.339 2.797 5.943 5.943 0 0 1 .442 4.412l1.338.411a7.408 7.408 0 0 0-.553-5.508Z" fill="#fff"/></svg>