<svg width="160" height="48" fill="none" xmlns="http://www.w3.org/2000/svg"><path d="M136 48c13.255 0 24-10.745 24-24S149.255 0 136 0s-24 10.745-24 24 10.745 24 24 24Z" fill="#555"/><path fill-rule="evenodd" clip-rule="evenodd" d="M136 16c-2.173 0-2.444.01-3.299.05-2.906.133-4.52 1.745-4.653 4.651-.039.855-.048 1.127-.048 3.299 0 2.173.009 2.445.048 3.299.133 2.905 1.747 4.52 4.653 4.653.855.039 1.126.048 3.299.048s2.445-.01 3.3-.048c2.901-.133 4.521-1.745 4.652-4.653.039-.854.048-1.126.048-3.299 0-2.172-.009-2.444-.048-3.299-.131-2.902-1.745-4.52-4.652-4.652-.855-.04-1.127-.049-3.3-.049Zm0 1.443c2.136 0 2.389.008 3.233.046 2.17.099 3.18 1.127 3.28 3.279.038.844.046 1.096.046 3.232s-.008 2.39-.046 3.232c-.1 2.15-1.109 3.181-3.28 3.28-.844.037-1.096.047-3.233.047-2.136 0-2.389-.008-3.232-.047-2.173-.1-3.18-1.132-3.28-3.28-.037-.843-.047-1.096-.047-3.232s.01-2.39.047-3.232c.099-2.153 1.109-3.181 3.28-3.28.843-.039 1.096-.045 3.232-.045ZM131.892 24a4.108 4.108 0 1 1 8.216 0 4.108 4.108 0 0 1-8.216 0ZM136 26.667a2.666 2.666 0 1 1-.001-5.333 2.666 2.666 0 0 1 .001 5.333Zm3.309-6.936a.96.96 0 1 1 1.92 0 .96.96 0 0 1-1.92 0Z" fill="#fff"/><path d="M80 48c13.255 0 24-10.745 24-24S93.255 0 80 0 56 10.745 56 24s10.745 24 24 24Z" fill="#555"/><path d="M88 19.54a6.57 6.57 0 0 1-1.885.517 3.297 3.297 0 0 0 1.444-1.816 6.568 6.568 0 0 1-2.086.796 3.286 3.286 0 0 0-5.593 2.993 9.323 9.323 0 0 1-6.765-3.429 3.287 3.287 0 0 0 1.016 4.383 3.276 3.276 0 0 1-1.486-.41c-.036 1.52 1.055 2.942 2.634 3.26a3.289 3.289 0 0 1-1.483.055 3.287 3.287 0 0 0 3.067 2.279A6.606 6.606 0 0 1 72 29.529a9.284 9.284 0 0 0 5.03 1.475c6.097 0 9.54-5.148 9.331-9.765A6.618 6.618 0 0 0 88 19.54Z" fill="#fff"/><path d="M24 48c13.255 0 24-10.745 24-24S37.255 0 24 0 0 10.745 0 24s10.745 24 24 24Z" fill="#555"/><path d="M21.667 21.333H19V24h2.667v8h4v-8h2.426l.24-2.667h-2.666v-1.11c0-.638.128-.89.744-.89h1.922V16h-3.205c-2.397 0-3.461 1.056-3.461 3.077v2.256Z" fill="#fff"/></svg>