<svg width="106" height="48" viewBox="0 0 106 48" fill="none" xmlns="http://www.w3.org/2000/svg">
<rect width="106" height="48" rx="3" fill="#555555"/>
<path d="M32.2274 22.96H28.7274V20.9C28.7274 20.6067 28.5607 20.46 28.2274 20.46H27.5274C27.1941 20.46 27.0274 20.6067 27.0274 20.9V28.26C27.0274 28.5533 27.1941 28.7 27.5274 28.7H28.2274C28.5607 28.7 28.7274 28.5533 28.7274 28.26V26.28H32.2274V28.52C32.2274 30.1733 31.2474 31 29.2874 31H26.4674C24.5074 31 23.5274 30.1733 23.5274 28.52V20.64C23.5274 18.9867 24.5074 18.16 26.4674 18.16H29.2874C31.2474 18.16 32.2274 18.9867 32.2274 20.64V22.96ZM36.2697 21.02H38.8097C39.8231 21.02 40.5497 21.2333 40.9897 21.66C41.4297 22.0867 41.6497 22.7 41.6497 23.5V28.52C41.6497 29.32 41.4297 29.9333 40.9897 30.36C40.5497 30.7867 39.8231 31 38.8097 31H36.2697C35.2564 31 34.5297 30.7867 34.0897 30.36C33.6497 29.9333 33.4297 29.32 33.4297 28.52V23.5C33.4297 22.7 33.6497 22.0867 34.0897 21.66C34.5297 21.2333 35.2564 21.02 36.2697 21.02ZM38.3097 28.2V23.82C38.3097 23.5267 38.1431 23.38 37.8097 23.38H37.2697C36.9364 23.38 36.7697 23.5267 36.7697 23.82V28.2C36.7697 28.4933 36.9364 28.64 37.2697 28.64H37.8097C38.1431 28.64 38.3097 28.4933 38.3097 28.2ZM48.3186 21.02H48.6786C50.452 21.02 51.3386 21.8467 51.3386 23.5V31H47.9386V23.96C47.9386 23.6667 47.772 23.52 47.4386 23.52H47.0986C46.7386 23.52 46.5586 23.72 46.5586 24.12V31H43.1586V21.02H46.4986V22.3C46.6853 21.4467 47.292 21.02 48.3186 21.02ZM57.9061 23.52H56.6461V28.06C56.6461 28.3533 56.8128 28.5 57.1461 28.5H57.8861V31H56.1861C54.2261 31 53.2461 30.1733 53.2461 28.52V23.52H52.1461V21.02H53.2461V19.06H56.6461V21.02H57.9061V23.52ZM63.5408 21.02H66.8808V31H63.4808V29.92C63.2275 30.64 62.6408 31 61.7208 31H61.3608C59.5875 31 58.7008 30.1733 58.7008 28.52V23.5C58.7008 21.8467 59.5875 21.02 61.3608 21.02H61.7208C62.7475 21.02 63.3542 21.4467 63.5408 22.3V21.02ZM62.6008 28.5H62.9408C63.3008 28.5 63.4808 28.3 63.4808 27.9V24.12C63.4808 23.72 63.3008 23.52 62.9408 23.52H62.6008C62.2675 23.52 62.1008 23.6667 62.1008 23.96V28.06C62.1008 28.3533 62.2675 28.5 62.6008 28.5ZM76.2911 24.88H73.0111V23.96C73.0111 23.6667 72.8445 23.52 72.5111 23.52H72.1711C71.8378 23.52 71.6711 23.6667 71.6711 23.96V28.06C71.6711 28.3533 71.8378 28.5 72.1711 28.5H72.5111C72.8445 28.5 73.0111 28.3533 73.0111 28.06V27.14H76.2911V28.52C76.2911 30.1733 75.3111 31 73.3511 31H71.2111C69.2511 31 68.2711 30.1733 68.2711 28.52V23.5C68.2711 21.8467 69.2511 21.02 71.2111 21.02H73.3511C75.3111 21.02 76.2911 21.8467 76.2911 23.5V24.88ZM82.5546 23.52H81.2946V28.06C81.2946 28.3533 81.4612 28.5 81.7946 28.5H82.5346V31H80.8346C78.8746 31 77.8946 30.1733 77.8946 28.52V23.52H76.7946V21.02H77.8946V19.06H81.2946V21.02H82.5546V23.52Z" fill="white"/>
</svg>
