<svg width="48" height="48" viewBox="0 0 48 48" fill="none" xmlns="http://www.w3.org/2000/svg">
<path d="M24 48C37.2548 48 48 37.2548 48 24C48 10.7452 37.2548 0 24 0C10.7452 0 0 10.7452 0 24C0 37.2548 10.7452 48 24 48Z" fill="#555555"/>
<path fill-rule="evenodd" clip-rule="evenodd" d="M33 17H15V31H33V17ZM31.5 18.5556V29.4444L27.7515 23.23L31.5 18.5556ZM16.5 18.5556V29.4444H31.5L26.6055 24.2971L24.0217 27.0061L21.4583 24.2644L16.5 29.4444L20.2882 23.2222L16.5 18.5556ZM16.5 18.5556H31.5L24.0217 24.3469L16.5 18.5556Z" fill="white"/>
</svg>
