<svg width="64" height="59" viewBox="0 0 64 59" fill="none" xmlns="http://www.w3.org/2000/svg">
<path fill-rule="evenodd" clip-rule="evenodd" d="M55.5293 22.701L57.5721 28.1189C61.465 29.7946 63.9932 33.6442 64 37.9077C63.9411 43.8909 59.0826 48.6961 53.1406 48.6489C50.0774 48.6484 47.1544 47.3572 45.0793 45.0878L44.0553 43.9622L50.1613 41.3844L54.4506 31.5023L50.217 25.528C49.7806 25.2683 49.4061 24.9148 49.1201 24.4937L39.3993 9.81047L24.396 18.876L20.5672 34.2951H23.4678V25.7021C23.4678 23.9225 24.9007 22.4797 26.668 22.4797H34.4616C36.0273 22.476 37.3643 23.6168 37.618 25.1724L39.4686 36.4433V46.1105H32.0016V48.2587H39.4686C42.4141 48.2587 44.8022 50.6635 44.8022 53.6294C44.8022 56.5953 42.4141 59 39.4686 59H5.33359C2.38814 59 0 56.5953 0 53.6294C0 50.6635 2.38814 48.2587 5.33359 48.2587H12.8006V46.1105H9.60047C7.83319 46.1105 6.40031 44.6676 6.40031 42.8881V37.5175C6.40031 35.7379 7.83319 34.2951 9.60047 34.2951H9.90986L17.2561 13.1619L38.3915 0.590181C38.7555 0.380391 39.1493 0.227769 39.5592 0.138083C40.9004 -0.227476 42.3333 0.144377 43.3323 1.11623C43.636 1.38529 43.8985 1.69787 44.112 2.0435C44.1338 2.08245 44.1507 2.12234 44.1675 2.16197L44.1675 2.16206C44.1812 2.19445 44.1949 2.22666 44.211 2.25801L55.0563 20.7384C55.4006 21.3321 55.5647 22.0145 55.5293 22.701ZM5.33359 50.407C3.56632 50.407 2.13344 51.8498 2.13344 53.6294C2.13344 55.4089 3.56632 56.8517 5.33359 56.8517C7.10087 56.8517 8.53375 55.4089 8.53375 53.6294C8.53375 51.8498 7.10087 50.407 5.33359 50.407ZM42.6687 53.6294C42.6687 55.4089 41.2359 56.8517 39.4686 56.8517C37.7013 56.8517 36.2684 55.4089 36.2684 53.6294C36.2684 51.8498 37.7013 50.407 39.4686 50.407C41.2359 50.407 42.6687 51.8498 42.6687 53.6294ZM35.2293 56.8517C33.7704 54.9547 33.7704 52.304 35.2293 50.407H27.7347V52.5552H25.6012V50.407H19.2009V52.5552H17.0675V50.407H9.57286C11.0318 52.304 11.0318 54.9547 9.57286 56.8517H13.8673V54.7035H16.0008V56.8517H21.3344V54.7035H23.4678V56.8517H28.8014V54.7035H30.9348V56.8517H35.2293ZM29.8681 48.2587H14.9341V46.1105H29.8681V48.2587ZM26.668 24.628C26.0789 24.628 25.6012 25.1089 25.6012 25.7021V43.9622H37.3352V36.5325L35.5132 25.5259C35.4278 25.0082 34.983 24.6285 34.4616 24.628H26.668ZM23.4678 36.4433V43.9622H9.60047C9.01138 43.9622 8.53375 43.4813 8.53375 42.8881V37.5175C8.53375 36.9243 9.01138 36.4433 9.60047 36.4433H23.4678ZM18.3681 34.2951L22.5396 17.4904L41.5776 5.98546C42.475 5.44735 42.8229 4.31291 42.3818 3.35941L42.2333 3.10662C42.1291 2.93459 41.9989 2.77934 41.8474 2.64718C41.3541 2.22655 40.6931 2.06396 40.0629 2.20766C39.8785 2.25329 39.7025 2.32567 39.5389 2.4227L39.5316 2.40959C39.5229 2.41433 39.514 2.418 39.5051 2.42168C39.4953 2.42573 39.4854 2.42979 39.4759 2.43529L19.0124 14.6115L12.1714 34.2951H18.3681ZM41.2307 8.70382L42.675 7.83057C43.2771 7.46186 43.7751 6.94421 44.1225 6.3269L53.2198 21.8351C53.4141 22.1655 53.463 22.562 53.3552 22.9302C53.2474 23.2979 52.9922 23.6042 52.651 23.7752C52.0317 24.0851 51.2801 23.8842 50.8952 23.3058L41.2307 8.70382ZM54.2245 25.293C53.8943 25.5731 53.5057 25.7745 53.0875 25.8815L55.447 29.2113L55.5834 28.8956L54.2245 25.293ZM53.1437 46.5049C51.2218 46.5038 49.3524 45.8724 47.819 44.7054L51.7744 43.0323L55.896 33.543L56.9627 31.0727L57.283 30.3479C60.0972 31.8059 61.8671 34.7246 61.8697 37.9119C61.8114 42.7087 57.9075 46.5526 53.1437 46.5049ZM34.135 42.8881H28.8014C27.6232 42.8881 26.668 41.9262 26.668 40.7398V27.8503C26.668 26.664 27.6232 25.7021 28.8014 25.7021H32.6532C33.6975 25.6989 34.5892 26.4594 34.7579 27.4968L36.2398 36.4454C36.2591 36.5629 36.2684 36.6815 36.2684 36.8V40.7398C36.2684 41.9262 35.3132 42.8881 34.135 42.8881ZM28.8014 37.5175V40.7398H34.135V37.5175H28.8014ZM32.6532 27.8503L33.898 35.3692H28.8014V27.8503H32.6532ZM10.6672 37.5175H14.9341V39.6657H10.6672V37.5175ZM12.8006 40.7399H10.6672V42.8881H12.8006V40.7399ZM6.40031 52.5552H4.26687V54.7035H6.40031V52.5552ZM38.4019 52.5552H40.5353V54.7035H38.4019V52.5552Z" fill="#333333"/>
</svg>
